<?xml version="1.0" encoding="utf-8"?>
<!-- Generator: Adobe Illustrator 21.0.0, SVG Export Plug-In . SVG Version: 6.00 Build 0)  -->
<svg version="1.1" id="Capa_1" xmlns="http://www.w3.org/2000/svg" xmlns:xlink="http://www.w3.org/1999/xlink" x="0px" y="0px"
	 viewBox="0 0 180 50" style="enable-background:new 0 0 180 50;" xml:space="preserve">
<style type="text/css">
	.st0{fill:url(#SVGID_1_);}
	.st1{fill:none;stroke:#FFFFFF;stroke-width:3;}
	.st2{fill:#FFFFFF;}
	.st3{fill:#1E293B;}
	.st4{font-family:'Arial-BoldMT';}
	.st5{font-size:22px;}
	.st6{fill:#64748B;}
	.st7{font-family:'ArialMT';}
	.st8{font-size:14px;}
</style>
<linearGradient id="SVGID_1_" gradientUnits="userSpaceOnUse" x1="-210.3261" y1="413.9565" x2="-209.3261" y2="412.9565" gradientTransform="matrix(46 0 0 -46 9677 19044)">
	<stop  offset="0" style="stop-color:#3B82F6"/>
	<stop  offset="1" style="stop-color:#1E40AF"/>
</linearGradient>
<circle class="st0" cx="25" cy="25" r="23"/>
<circle class="st1" cx="25" cy="25" r="15"/>
<path class="st2" d="M18.5,30H20c0.3,0,0.5,0.2,0.5,0.5v9c0,0.3-0.2,0.5-0.5,0.5h-1.5c-0.3,0-0.5-0.2-0.5-0.5v-9
	C18,30.2,18.2,30,18.5,30z"/>
<path class="st2" d="M22.5,27H24c0.3,0,0.5,0.2,0.5,0.5v12c0,0.3-0.2,0.5-0.5,0.5h-1.5c-0.3,0-0.5-0.2-0.5-0.5v-12
	C22,27.2,22.2,27,22.5,27z"/>
<path class="st2" d="M26.5,24H28c0.3,0,0.5,0.2,0.5,0.5v15c0,0.3-0.2,0.5-0.5,0.5h-1.5c-0.3,0-0.5-0.2-0.5-0.5v-15
	C26,24.2,26.2,24,26.5,24z"/>
<path class="st2" d="M30.5,21H32c0.3,0,0.5,0.2,0.5,0.5v18c0,0.3-0.2,0.5-0.5,0.5h-1.5c-0.3,0-0.5-0.2-0.5-0.5v-18
	C30,21.2,30.2,21,30.5,21z"/>
<circle class="st2" cx="25" cy="13" r="2"/>
<text transform="matrix(1 0 0 1 55 32)" class="st3 st4 st5">OMERIX</text>
<text transform="matrix(1 0 0 1 142 32)" class="st6 st7 st8">ERP</text>
</svg>
