<?xml version="1.0" encoding="utf-8"?>
<!-- Generator: Adobe Illustrator 21.0.0, SVG Export Plug-In . SVG Version: 6.00 Build 0)  -->
<svg version="1.1" id="Capa_1" xmlns="http://www.w3.org/2000/svg" xmlns:xlink="http://www.w3.org/1999/xlink" x="0px" y="0px"
	 viewBox="0 0 224 67.7" style="enable-background:new 0 0 224 67.7;" xml:space="preserve">
<style type="text/css">
	.st0{fill:url(#SVGID_1_);}
	.st1{fill:none;stroke:#FFFFFF;stroke-width:3;}
	.st2{fill:#FFFFFF;}
	.st3{font-family:'ErasITC-Bold';}
	.st4{font-size:62.4523px;}
</style>
<linearGradient id="SVGID_1_" gradientUnits="userSpaceOnUse" x1="-1051.4818" y1="384.7167" x2="-1050.2272" y2="383.4621" gradientTransform="matrix(46 0 0 -46 48377 17701.9707)">
	<stop  offset="0" style="stop-color:#3B82F6"/>
	<stop  offset="1" style="stop-color:#1E40AF"/>
</linearGradient>
<ellipse class="st0" cx="37.7" cy="33.8" rx="27.9" ry="29.7"/>
<ellipse class="st1" cx="37.7" cy="33.8" rx="18.2" ry="19.4"/>
<path class="st2" d="M29.8,40.3h1.8c0.4,0,0.6,0.3,1.2,0.6v11.6c-0.6,0.4-0.9,0.6-1.2,0.6h-1.8c-0.4,0-0.6-0.3-0.6-0.6V40.9
	C29.2,40.6,29.4,40.3,29.8,40.3z"/>
<path class="st2" d="M34.6,36.4h1.8c0.4,0,0.6,0.3,1.2,0.6v15.5c-0.6,0.4-0.9,0.6-1.2,0.6h-1.8c-0.4,0-0.6-0.3-0.6-0.6V37.1
	C34,36.7,34.3,36.4,34.6,36.4z"/>
<path class="st2" d="M39.5,32.5h1.8c0.4,0,0.6,0.3,1.2,0.6v19.4c-0.6,0.4-0.9,0.6-1.2,0.6h-1.8c-0.4,0-0.6-0.3-0.6-0.6V33.2
	C38.9,32.8,39.1,32.5,39.5,32.5z"/>
<path class="st2" d="M44.4,28.7h1.8c0.4,0,0.6,0.3,1.2,0.6v23.3c-0.6,0.4-0.9,0.6-1.2,0.6h-1.8c-0.4,0-0.6-0.3-0.6-0.6V29.3
	C43.7,28.9,44,28.7,44.4,28.7z"/>
<ellipse class="st2" cx="37.7" cy="18.3" rx="2.4" ry="2.6"/>
<text transform="matrix(0.5412 0 0 1 76.3335 53.2262)" class="st2 st3 st4">OMERIX</text>
</svg>
